<svg width="151" height="32" viewBox="0 0 151 32" fill="none" xmlns="http://www.w3.org/2000/svg">
<rect x="119" width="32" height="32" rx="8" fill="url(#paint0_linear_60_199)"/>
<g clip-path="url(#clip0_60_199)">
<g filter="url(#filter0_d_60_199)">
<path d="M138.657 11.6207C138.839 11.4363 139.088 11.3318 139.347 11.3299C139.607 11.3279 139.856 11.4288 140.042 11.6105C140.227 11.7921 140.333 12.0398 140.336 12.2993C140.34 12.5588 140.24 12.809 140.059 12.9954L134.833 19.5294C134.743 19.626 134.635 19.7036 134.514 19.7575C134.394 19.8114 134.264 19.8404 134.132 19.8429C134 19.8454 133.869 19.8213 133.746 19.772C133.624 19.7227 133.513 19.6492 133.419 19.556L129.954 16.092C129.77 15.9078 129.666 15.6579 129.667 15.3975C129.667 15.137 129.77 14.8872 129.954 14.703C130.139 14.5189 130.388 14.4155 130.649 14.4155C130.909 14.4156 131.159 14.5191 131.343 14.7034L134.084 17.4447L138.631 11.6514C138.639 11.6408 138.648 11.6308 138.657 11.6214L138.657 11.6207Z" fill="white"/>
</g>
</g>
<path d="M5.25497 18.8182H3.23153L0.710938 20.4141V22.3232L3.04261 20.8615H3.10227V29H5.25497V18.8182ZM7.67489 29H14.9334V27.2401H10.6578V27.1705L12.1444 25.7138C14.2374 23.8047 14.7992 22.8501 14.7992 21.6918C14.7992 19.9268 13.3574 18.679 11.1749 18.679C9.03711 18.679 7.57049 19.9567 7.57546 21.9553H9.61879C9.61381 20.9808 10.2303 20.3842 11.16 20.3842C12.0549 20.3842 12.7211 20.9411 12.7211 21.8359C12.7211 22.6463 12.2239 23.2031 11.2992 24.093L7.67489 27.4489V29ZM23.4174 18.679C21.1404 18.669 19.6042 20.1605 19.6142 22.2088C19.6191 24.108 20.9366 25.4851 22.7413 25.4851C23.8599 25.4851 24.8542 24.9432 25.3066 24.0483H25.3762C25.3713 26.0668 24.6703 27.2947 23.3429 27.2947C22.5623 27.2947 22.0005 26.8672 21.8365 26.1264H19.7136C19.9125 27.8416 21.3045 29.1392 23.3429 29.1392C25.8635 29.1392 27.4892 27.1009 27.4842 23.6456C27.4792 19.9567 25.5105 18.6889 23.4174 18.679ZM23.4324 20.3693C24.4217 20.3693 25.1525 21.1747 25.1625 22.1442C25.1674 23.1186 24.3968 23.924 23.4125 23.924C22.4181 23.924 21.7072 23.1484 21.7022 22.1491C21.6923 21.1548 22.4331 20.3693 23.4324 20.3693ZM32.6596 18.679C30.3826 18.669 28.8464 20.1605 28.8564 22.2088C28.8613 24.108 30.1788 25.4851 31.9835 25.4851C33.1021 25.4851 34.0964 24.9432 34.5488 24.0483H34.6184C34.6135 26.0668 33.9125 27.2947 32.585 27.2947C31.8045 27.2947 31.2427 26.8672 31.0787 26.1264H28.9558C29.1547 27.8416 30.5467 29.1392 32.585 29.1392C35.1056 29.1392 36.7314 27.1009 36.7264 23.6456C36.7214 19.9567 34.7527 18.6889 32.6596 18.679ZM32.6745 20.3693C33.6639 20.3693 34.3947 21.1747 34.4047 22.1442C34.4096 23.1186 33.639 23.924 32.6547 23.924C31.6603 23.924 30.9494 23.1484 30.9444 22.1491C30.9345 21.1548 31.6752 20.3693 32.6745 20.3693ZM41.9018 18.679C39.6248 18.669 38.0886 20.1605 38.0985 22.2088C38.1035 24.108 39.421 25.4851 41.2257 25.4851C42.3443 25.4851 43.3386 24.9432 43.791 24.0483H43.8606C43.8556 26.0668 43.1547 27.2947 41.8272 27.2947C41.0467 27.2947 40.4849 26.8672 40.3208 26.1264H38.198C38.3968 27.8416 39.7889 29.1392 41.8272 29.1392C44.3478 29.1392 45.9735 27.1009 45.9686 23.6456C45.9636 19.9567 43.9949 18.6889 41.9018 18.679ZM41.9167 20.3693C42.9061 20.3693 43.6369 21.1747 43.6468 22.1442C43.6518 23.1186 42.8812 23.924 41.8968 23.924C40.9025 23.924 40.1916 23.1484 40.1866 22.1491C40.1767 21.1548 40.9174 20.3693 41.9167 20.3693ZM50.7202 31.8636H52.8381V27.777H52.9027C53.196 28.4134 53.8374 29.1243 55.0703 29.1243C56.8104 29.1243 58.1676 27.7472 58.1676 25.1918C58.1676 22.5668 56.7507 21.2642 55.0753 21.2642C53.7976 21.2642 53.1861 22.0249 52.9027 22.6463H52.8082V21.3636H50.7202V31.8636ZM52.7933 25.1818C52.7933 23.8196 53.37 22.9496 54.3991 22.9496C55.4482 22.9496 56.005 23.8594 56.005 25.1818C56.005 26.5142 55.4382 27.4389 54.3991 27.4389C53.38 27.4389 52.7933 26.544 52.7933 25.1818ZM60.6273 31.8636C62.2033 31.8636 63.0385 31.0582 63.4711 29.8253L66.4391 21.3736L64.1969 21.3636L62.601 26.9716H62.5215L60.9405 21.3636H58.7132L61.4526 29.2188L61.3283 29.5419C61.0499 30.2578 60.5179 30.2926 59.7722 30.0639L59.2949 31.6449C59.5982 31.7741 60.0904 31.8636 60.6273 31.8636ZM73.8716 18.5597C73.4988 18.8232 72.9022 18.8182 72.0868 18.8182C71.8929 18.8182 71.6891 18.8132 71.4703 18.8182C68.6912 18.843 67.2395 20.5831 67.2395 24.2621V24.8885C67.2395 27.6626 68.6713 29.1491 70.9831 29.1491C73.29 29.1491 74.7168 27.6626 74.7168 25.331C74.7168 23.0938 73.4093 21.7564 71.4604 21.7564C70.2324 21.7564 69.4071 22.2884 68.9498 23.223H68.8752C69.0542 21.3487 69.7701 20.5781 71.54 20.5582C73.106 20.5334 73.8667 20.4787 74.5179 19.9418L73.8716 18.5597ZM70.9931 27.5085C69.9938 27.5085 69.3922 26.7031 69.3922 25.4006C69.4022 24.098 69.9988 23.3622 70.9831 23.3622C71.9625 23.3622 72.5641 24.098 72.5641 25.4006C72.5641 26.7081 71.9625 27.5085 70.9931 27.5085ZM77.3604 29.1293C77.9968 29.1293 78.5487 28.5973 78.5536 27.9361C78.5487 27.2848 77.9968 26.7528 77.3604 26.7528C76.7042 26.7528 76.1623 27.2848 76.1673 27.9361C76.1623 28.5973 76.7042 29.1293 77.3604 29.1293Z" fill="black"/>
<path d="M7.97656 9.93359H7.05469V3H5.89453V9.95312H2.03516V3H0.878906V11H6.66797V12.8906H7.87109L7.97656 9.93359ZM9.30078 11H14.3633V9.96094H10.5078V7.51172H14.0547V6.47656H10.5078V4.03906H14.3164V3H9.30078V11ZM15.9287 11H17.1357V7.51172H21.124V11H22.335V3H21.124V6.47656H17.1357V3H15.9287V11ZM24.7686 11L25.5029 8.88281H28.6279L29.3584 11H30.6396L27.7607 3H26.3662L23.4873 11H24.7686ZM25.8545 7.86719L27.0342 4.45312H27.0967L28.2764 7.86719H25.8545ZM32.4707 6C32.8965 6 33.252 5.65234 33.252 5.21875C33.252 4.79297 32.8965 4.44141 32.4707 4.44141C32.041 4.44141 31.6895 4.79297 31.6895 5.21875C31.6895 5.65234 32.041 6 32.4707 6ZM32.4707 10.0078C32.8965 10.0078 33.252 9.66016 33.252 9.22656C33.252 8.80078 32.8965 8.44922 32.4707 8.44922C32.041 8.44922 31.6895 8.80078 31.6895 9.22656C31.6895 9.66016 32.041 10.0078 32.4707 10.0078Z" fill="#BDBDBD"/>
<defs>
<filter id="filter0_d_60_199" x="129.667" y="11.3298" width="10.6698" height="10.5132" filterUnits="userSpaceOnUse" color-interpolation-filters="sRGB">
<feFlood flood-opacity="0" result="BackgroundImageFix"/>
<feColorMatrix in="SourceAlpha" type="matrix" values="0 0 0 0 0 0 0 0 0 0 0 0 0 0 0 0 0 0 127 0" result="hardAlpha"/>
<feOffset dy="2"/>
<feColorMatrix type="matrix" values="0 0 0 0 0 0 0 0 0 0 0 0 0 0 0 0 0 0 0.1 0"/>
<feBlend mode="normal" in2="BackgroundImageFix" result="effect1_dropShadow_60_199"/>
<feBlend mode="normal" in="SourceGraphic" in2="effect1_dropShadow_60_199" result="shape"/>
</filter>
<linearGradient id="paint0_linear_60_199" x1="135" y1="0" x2="135" y2="32" gradientUnits="userSpaceOnUse">
<stop stop-color="#89F09C"/>
<stop offset="1" stop-color="#3CC755"/>
</linearGradient>
<clipPath id="clip0_60_199">
<rect width="10.6667" height="10.6667" fill="white" transform="translate(129.667 10.6667)"/>
</clipPath>
</defs>
</svg>
